<svg version="1" xmlns="http://www.w3.org/2000/svg" width="594.667" height="594.667" viewBox="0 0 446.000000 446.000000"><path d="M200.6 27.1c-3.8.4-8.7 1.1-11 1.4-2.3.4-5.4.9-7.1 1.1-11.7 1.6-33.5 8.9-49 16.5-6.6 3.2-12.9 6.4-14 7.1C102 64.5 93.1 71 87.1 76.9c-1.8 1.7-3.7 3.1-4.3 3.1-.6 0-.9.2-.7.5.3.2-3.1 4.2-7.6 8.7-4.4 4.6-9.1 9.8-10.5 11.7-1.4 1.8-3 3.8-3.5 4.4C57.9 108.2 50 120 50 120.8c0 .5-.7 1.5-1.5 2.2-.8.7-1.2 1.6-.9 2.1.3.5.1.9-.4.9s-3.2 4.9-6 11c-5.7 12-10.4 24-9.5 24 .3 0 .1.6-.4 1.2-1.4 1.9-5.4 16.3-6.8 24.8-.3 1.9-.8 4.6-1 6-2.6 15.6-2.6 41.6.1 62.5.8 6.5 6 26.3 9.4 36 3.4 9.6 11.9 27.8 13.2 28.3.4.2.8.8.8 1.4 0 1.5 10.9 17.5 17.7 25.8 6.4 7.9 16 17.8 23.8 24.5 2.5 2.2 5.2 4.5 5.8 5.1 1.8 1.5 13 9.8 14.9 10.9.9.5 4.3 2.5 7.5 4.4 3.2 1.9 6 3.7 6.3 4.1.9 1 19.1 9.6 22.5 10.6.6.2 3.9 1.5 7.4 3 3.6 1.4 7.2 2.8 8 2.9.9.2 1.6.4 1.6.5 0 .2.4.3 14 3.4 12.3 2.7 16.2 3.3 28.5 4.3 23.2 1.8 52.7-.5 69-5.3 3-.9 6.6-1.8 8-2.1 1.3-.2 2.9-.8 3.5-1.3.5-.4 1.5-.9 2-.9 2.3-.2 11.4-3.6 18.4-6.9 4.2-2 7.8-3.6 8.1-3.7 4.1-1.6 7-3.1 7-3.7 0-.4.4-.8 1-.8.5 0 3.4-1.6 6.4-3.5 3-1.9 5.9-3.5 6.5-3.5.5 0 1.1-.4 1.3-.8.2-.5 2.3-2.2 4.8-3.9 2.5-1.7 5.6-4 7-5.2 1.4-1.1 4.1-3.3 6-4.8 6.3-5.1 25.9-25.5 27.2-28.3.7-1.6 1.5-2.7 1.8-2.5.3.2 2.1-2 4-4.8 1.9-2.9 3.8-5.4 4.3-5.5.4-.2.7-1 .7-1.7s.4-1.5.8-1.7c2.5-1 13.6-23 19-37.9 3.5-9.5 8.1-26.3 8.6-31.2.2-1.8.6-4.2.9-5.3 1.6-5.6 2.5-43.3 1.3-54.8-2.3-21.4-9.9-46.4-20-66.2-4.6-8.9-13.3-22.9-16.1-26-.5-.7-1.9-2.4-2.9-3.8-5.5-7.6-21.6-24.3-30.2-31.3-16.4-13.5-32.1-23.1-51.6-31.7-11.6-5.1-34.2-11.6-45.8-13-2.5-.3-5.6-.8-7-1.2-4.1-.8-40.9-1.1-48.4-.3zm39.5 10.3c5.2.6 12.4 1.7 19.9 3.1 1.9.3 6 1.3 9 2.1s6.2 1.6 7.1 1.9c2.8.6 10.1 3.2 18.4 6.5 7.2 2.9 27.3 12.7 28.5 14 .3.3 3.5 2.5 7.2 4.8 3.7 2.4 7.7 5.2 8.9 6.3 1.2 1 2.5 1.9 2.8 1.9.6 0 7.7 6.3 16.1 14.3 2.5 2.4 6.5 6.7 9 9.6 2.5 2.9 5.3 6.2 6.3 7.4.9 1.1 1.7 2.3 1.7 2.6 0 .3 1.3 1.9 2.8 3.6 1.6 1.6 2.9 3.3 3 3.8.3 1.2 3.6 6.1 4.7 6.9.6.5.6.8 0 .8s-.5.3.1.8c2 1.3 14.2 27.7 17.4 37.7 1.8 5.5 3.5 10.7 3.7 11.5.3.8.7 2.2.8 3 .1.8.8 3.7 1.4 6.5 2.9 11.9 4 24.4 3.6 40-.3 14.6-.7 19.4-2 26.5-.3 1.4-.8 4.1-1.1 6-1.7 11.2-8.3 30.5-15.7 46-4.3 9.1-14.7 26.5-16.6 28-.4.3-.8 3-.9 6.1-.1 3.1-1 7.6-2.1 10-2 4.5-9.5 13.2-10.5 12.1-.3-.3-.6-.1-.6.5 0 1.6-7.2 4.2-13.6 4.9-3.2.4-5.8 1.3-6.1 2-.3.8-1.1 1.4-1.9 1.4-.8 0-1.4.4-1.4.8 0 1-18.4 13.2-19.9 13.2-.5 0-1.1.4-1.3.8-1 2.4-34.2 16.6-43.8 18.7l-8 2c-3.6.9-9.2 2.1-12.5 2.7-3.3.5-7.3 1.1-9 1.4-7.7 1.3-36.5 1.2-45-.1-13.9-2.1-16.6-2.6-22.5-4.1-3-.9-6.3-1.7-7.3-1.9-10.3-2.3-37.4-14-48.2-20.9-3-2-6-3.6-6.5-3.6-.6 0-1-.3-1-.8 0-.4-1.5-1.5-3.3-2.5-1.8-1-4.7-3.1-6.5-4.8-1.7-1.6-3.2-2.8-3.2-2.4 0 1.3-20.6-18.7-26.9-26.1-4.3-5-18.1-25.7-18.1-27 0-.7-.4-1.4-.8-1.6-.4-.2-2.4-3.7-4.4-7.8-9.3-19.2-15.1-37.7-18.2-58.5-1.3-8.8-1.5-40-.2-45.5.3-1.4.8-4.7 1-7.3.3-2.6.8-5.1 1-5.6.3-.5.8-2.6 1.2-4.7 1.2-7.9 6-22 13.2-38.4 2.5-5.8 4.9-10.7 5.4-10.8.4-.2.8-.9.8-1.6 0-.7 2-4.2 4.5-7.9s4.3-6.7 4-6.7c-.3 0 .2-.8 1.1-1.8.8-.9 2.9-3.5 4.5-5.7 9.4-12.4 20.7-24.2 30.7-31.8C109.7 72.9 119.9 66 121 66c.5 0 1-.4 1-.9s1-1.3 2.3-1.7c1.2-.3 3-1.3 4-2.2.9-.8 1.7-1.2 1.7-.8 0 .4 1.2-.1 2.8-1.1 2.4-1.7 6.3-3.5 18.2-8.6 7-3 23.1-8 25.5-7.8.2 0 2.3-.6 4.5-1.4 2.2-.8 4.3-1.4 4.5-1.4.5.1 6.9-.9 11-1.7 1.1-.2 5.4-.7 9.5-1 4.1-.4 7.6-.7 7.7-.8.4-.3 21.7.3 26.4.8z"/><path d="M229.7 106.6c-.1.1-11.2.5-24.7 1-25.9.8-67.3.8-92.7.1-8.4-.2-15.4-.2-15.4.2-.1.3-.2 4.1-.3 8.3-.1 5.7.2 7.8 1.1 7.8 2 0 2.1 0 6.3 1.5 2.2.8 4 1.2 4 1 0-.2 1.8.2 4 1s4 1.1 4 .8c0-.4.5-.2 1.1.4.6.6 1.2 3 1.5 5.4.2 2.4.7 5.7 1.1 7.4 1 4.7 1.2 143 .2 152.5-1.4 14.4-1.8 17.2-2.3 17.7-.6.6-13.4 3.9-18.3 4.7-2.4.4-2.8 1.8-2.9 9.4l-.1 7.7H210V317.2l-4.7-1.2c-2.7-.6-5.7-1.4-6.8-1.7-6.7-1.5-8.1-2.2-8.2-4 0-1-.4-6.3-.7-11.8-1.1-16.4-2.2-56.5-1.7-62 .1-.8 8.7-1.3 12.3-.6.4 0 4.2 4.7 8.4 10.3 4.3 5.7 8 10.5 8.4 10.8.3.3 3 3.9 6 8s5.7 7.7 6 8c.3.3 5.7 7.5 12 16s11.8 15.6 12.3 15.8c.4.2.7.8.7 1.3 0 .7 14.7 21.6 18 25.6.5.7 1 1.5 1 1.8 0 .3.9 1.5 1.9 2.6 1.6 1.8 2.7 2 6.3 1.4 2.4-.3 5.9-.8 7.8-1 12.4-1.4 15.9-1.7 18.8-1.8 2.9 0 3.2-.3 3.3-3.1.1-5 .9-8.7 2.6-11.9 2-4 10.2-12.7 11.9-12.7.8 0 1.4-.4 1.4-.9 0-.4 1.4-1.2 3-1.7l3-.9-3.2-3.6c-1.8-1.9-5.2-5.8-7.5-8.5-6.2-7.3-7.4-8.7-18.3-21.4-.8-1-2.8-3.4-4.5-5.5-1.6-2-3.7-4.5-4.5-5.4-1.4-1.4-8.6-10.1-11.7-14.1-1.8-2.4-12.6-15.3-14.5-17.4-1-1.1-1.8-2.3-1.8-2.7 0-.3 3-1.4 6.8-2.4 18-4.5 33.8-16.9 41.7-32.5 4.3-8.6 5.9-15.7 5.8-26-.2-23.3-12.9-41.1-36.2-50.5-3.2-1.3-6.9-2.6-8.2-2.9-10.2-2-13.2-2.5-19.3-3.1-6.5-.7-27.4-1.3-27.9-.9zM219 138.4c11.6 1 17 3 23.5 8.8 7 6.1 9.5 16.5 6.8 28.3-2.6 11.5-12.1 20.5-25.9 24.6-5.4 1.6-9.8 2-20.6 2.1-7.5 0-14-.2-14.5-.5-2.1-1.3.5-57.4 2.8-60.3.5-.6 3-1.4 5.7-1.8 2.6-.4 6.7-1 9.2-1.4 2.5-.5 5-.7 5.5-.6.6.1 3.9.5 7.5.8zM338.5 311c-5.1 1.2-5.9 1.5-7 2.3-5.4 3.9-6.9 5.5-9.2 9.5-6.7 11.4-1.9 27 10.1 33.1 6.1 3 11.3 3.7 17.2 2.2 14.8-3.8 22.5-19.1 16.4-32.8-2.9-6.5-10.4-13.1-16-13.9-5.6-.9-8.9-1-11.5-.4z"/></svg>